<?xml version="1.0" encoding="utf-8"?>
<!-- Generator: Adobe Illustrator 26.5.0, SVG Export Plug-In . SVG Version: 6.00 Build 0)  -->
<svg version="1.1" id="Layer_1" xmlns="http://www.w3.org/2000/svg" xmlns:xlink="http://www.w3.org/1999/xlink" x="0px" y="0px"
	 viewBox="0 0 126.4 38.4" style="enable-background:new 0 0 126.4 38.4;" xml:space="preserve">
<style type="text/css">
	.st0{fill:#FFFFFF;}
</style>
<g>
	<polygon class="st0" points="34.7,4.5 26.3,4.5 2.7,33.9 11.1,33.9 18.7,24.4 26.3,33.9 34.7,33.9 22.9,19.2 	"/>
	<path class="st0" d="M74,4.7c-0.2,0.1-0.3,0.2-0.5,0.3l-13.2,9.5L47,5.1l0,0c-0.3-0.4-0.8-0.6-1.4-0.6h-4.8v29.4h6.7V13.6l12.7,9.1
		c0.1,0,0.1,0,0.2,0l12.6-9.1v20.4h6.7V4.5h-4.8C74.5,4.5,74.2,4.6,74,4.7"/>
	<path class="st0" d="M5.9,8.5l7.1,9.2l4.3-5.2l-1.8-2.4l-3.5-4.6c-0.1-0.1-0.1-0.2-0.2-0.2L11,4.5H9.6H5.8H2.7L5.9,8.5L5.9,8.5z"/>
	<path class="st0" d="M122.6,31.9c0-0.1-0.1-0.1-0.1-0.2l-4.1-7.6l0,0l-5.8-10.7l0,0l-4.3-7.8c0,0,0,0,0,0l-0.6-1.1H106h0h-3.8h0
		h-1.8l-1.9,3.6L85.8,31.5c-0.1,0.1-0.2,0.3-0.2,0.4l-1.1,2H87h3.9h1.7l3.5-6.4l8.1-14.9l11,20.2l0,0l0.6,1.1h1.7h3.9h2.5
		L122.6,31.9z"/>
</g>
</svg>
