<svg width="569" height="476" viewBox="0 0 569 476" fill="none" xmlns="http://www.w3.org/2000/svg">
<path fill-rule="evenodd" clip-rule="evenodd" d="M284.392 0C365.28 0 430.85 65.5708 430.85 146.458V164.211C430.85 196.19 420.6 225.775 403.207 249.862C391.011 241.44 377.844 229.491 363.526 215.156C375.226 197.341 382.031 176.024 382.031 153.116C382.031 90.6112 331.363 39.9432 268.859 39.9432H182.315V58.7554C168.06 52.3084 153.272 47.4499 137.934 44.7064V0H284.392ZM182.315 73.4611V85.4276C168.08 77.8624 153.292 71.7881 137.934 67.7639V58.2548C153.205 61.2302 167.986 66.481 182.315 73.4611ZM137.934 81.5659C153.211 85.913 167.991 92.4597 182.315 100.623V266.288H268.859C295.108 266.288 319.271 257.351 338.469 242.355L340.285 244.182C352.927 256.863 365.297 268.379 377.374 277.375C352.084 298.178 319.695 310.669 284.392 310.669H137.934V81.5659ZM387.459 268.264C390.042 265.705 392.53 263.053 394.918 260.309C382.102 251.359 368.951 239.354 355.487 225.946C353.268 228.583 350.929 231.119 348.483 233.542L349.716 234.781C363.275 248.384 375.807 259.867 387.459 268.264Z" fill="white"/>
<path fill-rule="evenodd" clip-rule="evenodd" d="M268.859 48.8195C326.459 48.8195 373.155 95.5152 373.155 153.116C373.155 173.542 367.282 192.595 357.134 208.683C348.747 200.102 340.088 190.929 331.107 181.42C335.296 172.877 337.65 163.27 337.65 153.116C337.65 117.574 308.839 88.7626 273.297 88.7626H232.491C219.263 79.0066 205.502 70.2365 191.191 63.005V48.8195H268.859ZM191.191 78.0336V90.3728C203.442 97.5154 215.272 105.707 226.696 114.577V101.052C215.174 92.4206 203.346 84.6301 191.191 78.0336ZM191.191 105.921C203.351 113.502 215.178 122.189 226.696 131.614V217.468H273.297C285.263 217.468 296.469 214.203 306.067 208.512L309.101 211.724L309.25 211.88C317.076 220.166 324.736 228.278 332.21 235.971C314.648 249.42 292.687 257.412 268.859 257.412H191.191V105.921ZM342.261 227.207C343.358 226.122 344.43 225.01 345.477 223.876C346.758 222.49 348.002 221.07 349.204 219.618C340.952 211.214 332.466 202.245 323.772 193.039C321.657 195.711 319.331 198.21 316.824 200.513L318.473 202.26C326.658 210.926 334.575 219.306 342.261 227.207Z" fill="white"/>
<path d="M24.0935 410.735H4.74407V356.152H24.2534C29.7437 356.152 34.47 357.244 38.4323 359.43C42.3945 361.598 45.4418 364.716 47.5739 368.785C49.7239 372.854 50.7988 377.722 50.7988 383.39C50.7988 389.076 49.7239 393.962 47.5739 398.049C45.4418 402.135 42.3768 405.271 38.379 407.457C34.3989 409.642 29.6371 410.735 24.0935 410.735ZM16.2844 400.847H23.6137C27.0252 400.847 29.8947 400.243 32.2223 399.035C34.5677 397.809 36.3268 395.917 37.4994 393.358C38.6899 390.782 39.2851 387.459 39.2851 383.39C39.2851 379.357 38.6899 376.061 37.4994 373.502C36.3268 370.944 34.5766 369.06 32.249 367.852C29.9214 366.644 27.0518 366.04 23.6404 366.04H16.2844V400.847ZM59.3475 410.735V356.152H80.8823C85.0045 356.152 88.5226 356.889 91.4365 358.364C94.3683 359.821 96.5982 361.891 98.1262 364.574C99.672 367.239 100.445 370.375 100.445 373.982C100.445 377.607 99.6631 380.725 98.0996 383.337C96.536 385.931 94.2705 387.921 91.3033 389.307C88.3538 390.693 84.7824 391.386 80.5892 391.386H66.1704V382.111H78.7235C80.9267 382.111 82.7569 381.809 84.2138 381.205C85.6708 380.601 86.7547 379.694 87.4654 378.486C88.1939 377.278 88.5581 375.776 88.5581 373.982C88.5581 372.17 88.1939 370.642 87.4654 369.398C86.7547 368.154 85.6619 367.212 84.1872 366.573C82.7302 365.915 80.8912 365.587 78.6702 365.587H70.8878V410.735H59.3475ZM88.8246 385.895L102.391 410.735H89.6509L76.3781 385.895H88.8246ZM108.6 410.735V356.152H145.38V365.666H120.141V378.673H143.488V388.187H120.141V401.22H145.487V410.735H108.6ZM163.963 410.735H151.597L170.44 356.152H185.312L204.128 410.735H191.762L178.089 368.625H177.663L163.963 410.735ZM163.191 389.28H192.401V398.289H163.191V389.28ZM210.698 356.152H224.93L239.962 392.825H240.601L255.633 356.152H269.865V410.735H258.672V375.208H258.218L244.093 410.469H236.47L222.345 375.075H221.892V410.735H210.698V356.152ZM316.093 410.735H296.744V356.152H316.253C321.744 356.152 326.47 357.244 330.432 359.43C334.394 361.598 337.442 364.716 339.574 368.785C341.724 372.854 342.799 377.722 342.799 383.39C342.799 389.076 341.724 393.962 339.574 398.049C337.442 402.135 334.377 405.271 330.379 407.457C326.399 409.642 321.637 410.735 316.093 410.735ZM308.284 400.847H315.614C319.025 400.847 321.895 400.243 324.222 399.035C326.568 397.809 328.327 395.917 329.499 393.358C330.69 390.782 331.285 387.459 331.285 383.39C331.285 379.357 330.69 376.061 329.499 373.502C328.327 370.944 326.577 369.06 324.249 367.852C321.921 366.644 319.052 366.04 315.64 366.04H308.284V400.847ZM351.347 410.735V356.152H372.882C377.004 356.152 380.523 356.889 383.436 358.364C386.368 359.821 388.598 361.891 390.126 364.574C391.672 367.239 392.445 370.375 392.445 373.982C392.445 377.607 391.663 380.725 390.099 383.337C388.536 385.931 386.27 387.921 383.303 389.307C380.354 390.693 376.782 391.386 372.589 391.386H358.17V382.111H370.723C372.927 382.111 374.757 381.809 376.214 381.205C377.671 380.601 378.755 379.694 379.465 378.486C380.194 377.278 380.558 375.776 380.558 373.982C380.558 372.17 380.194 370.642 379.465 369.398C378.755 368.154 377.662 367.212 376.187 366.573C374.73 365.915 372.891 365.587 370.67 365.587H362.888V410.735H351.347ZM380.825 385.895L394.39 410.735H381.651L368.378 385.895H380.825ZM412.141 356.152V410.735H400.6V356.152H412.141ZM431.497 356.152L444.69 397.622H445.196L458.415 356.152H471.208L452.392 410.735H437.52L418.677 356.152H431.497ZM477.778 410.735V356.152H514.558V365.666H489.318V378.673H512.666V388.187H489.318V401.22H514.665V410.735H477.778ZM553.343 371.85C553.13 369.7 552.215 368.03 550.598 366.839C548.981 365.649 546.787 365.053 544.015 365.053C542.132 365.053 540.541 365.32 539.244 365.853C537.947 366.368 536.952 367.088 536.259 368.012C535.584 368.936 535.247 369.984 535.247 371.157C535.211 372.134 535.415 372.987 535.86 373.715C536.322 374.444 536.952 375.075 537.752 375.608C538.551 376.123 539.475 376.576 540.524 376.967C541.572 377.34 542.691 377.66 543.882 377.926L548.786 379.099C551.167 379.632 553.352 380.343 555.342 381.231C557.332 382.12 559.056 383.212 560.513 384.509C561.97 385.807 563.098 387.335 563.898 389.094C564.715 390.853 565.132 392.869 565.15 395.144C565.132 398.484 564.28 401.38 562.592 403.832C560.921 406.266 558.505 408.159 555.342 409.509C552.197 410.842 548.404 411.508 543.962 411.508C539.555 411.508 535.717 410.833 532.448 409.482C529.197 408.132 526.656 406.133 524.826 403.486C523.013 400.821 522.063 397.525 521.974 393.598H533.141C533.265 395.428 533.79 396.956 534.714 398.182C535.655 399.39 536.908 400.305 538.471 400.927C540.053 401.531 541.839 401.833 543.829 401.833C545.783 401.833 547.48 401.549 548.919 400.98C550.376 400.412 551.504 399.621 552.304 398.608C553.103 397.596 553.503 396.432 553.503 395.117C553.503 393.891 553.139 392.86 552.411 392.025C551.7 391.19 550.651 390.48 549.266 389.893C547.897 389.307 546.218 388.774 544.228 388.294L538.285 386.802C533.683 385.682 530.049 383.932 527.384 381.551C524.719 379.17 523.395 375.963 523.413 371.93C523.395 368.625 524.275 365.738 526.052 363.268C527.846 360.798 530.307 358.87 533.434 357.484C536.561 356.098 540.115 355.405 544.095 355.405C548.146 355.405 551.682 356.098 554.703 357.484C557.741 358.87 560.104 360.798 561.792 363.268C563.48 365.738 564.351 368.598 564.404 371.85H553.343Z" fill="white"/>
<path d="M110.793 464.408L104.048 454.803C103.214 454.863 102.559 454.892 102.082 454.892H94.3535V464.408H89.8861V433.136H102.082C106.132 433.136 109.319 434.104 111.642 436.04C113.965 437.976 115.127 440.641 115.127 444.037C115.127 446.449 114.531 448.504 113.34 450.202C112.149 451.899 110.451 453.135 108.247 453.91L115.663 464.408H110.793ZM101.948 451.095C104.777 451.095 106.937 450.485 108.426 449.263C109.915 448.042 110.659 446.3 110.659 444.037C110.659 441.773 109.915 440.046 108.426 438.854C106.937 437.633 104.777 437.023 101.948 437.023H94.3535V451.095H101.948ZM145.039 460.521V464.408H122.344V433.136H144.413V437.023H126.812V446.628H142.492V450.425H126.812V460.521H145.039ZM179.166 433.136V464.408H175.503L156.74 441.088V464.408H152.273V433.136H155.936L174.699 456.456V433.136H179.166ZM194.736 437.023H184.014V433.136H209.881V437.023H199.159V464.408H194.736V437.023ZM249.617 464.899L245.462 460.745C242.692 463.425 239.208 464.765 235.008 464.765C232.923 464.765 231.047 464.423 229.379 463.738C227.712 463.053 226.401 462.1 225.448 460.879C224.525 459.628 224.063 458.213 224.063 456.635C224.063 454.729 224.644 453.046 225.805 451.587C226.997 450.097 228.948 448.578 231.658 447.03C230.288 445.66 229.32 444.424 228.754 443.322C228.188 442.22 227.905 441.073 227.905 439.882C227.905 437.767 228.665 436.07 230.183 434.789C231.732 433.508 233.787 432.868 236.348 432.868C238.731 432.868 240.622 433.449 242.022 434.61C243.422 435.772 244.122 437.365 244.122 439.391C244.122 440.969 243.601 442.384 242.558 443.635C241.546 444.885 239.848 446.196 237.465 447.566L245.194 455.25C246.087 453.552 246.728 451.661 247.115 449.576L250.555 450.693C250.019 453.433 249.11 455.816 247.83 457.841L252.029 462.04L249.617 464.899ZM236.348 435.995C234.949 435.995 233.847 436.353 233.043 437.068C232.268 437.753 231.881 438.661 231.881 439.793C231.881 440.597 232.09 441.371 232.507 442.116C232.953 442.86 233.802 443.873 235.053 445.153C237.108 443.992 238.523 442.994 239.297 442.16C240.101 441.326 240.503 440.418 240.503 439.435C240.503 438.393 240.131 437.559 239.386 436.933C238.672 436.308 237.659 435.995 236.348 435.995ZM235.276 461.191C238.374 461.191 240.92 460.209 242.916 458.243L234.025 449.398C231.881 450.589 230.377 451.706 229.513 452.748C228.679 453.761 228.263 454.907 228.263 456.188C228.263 457.677 228.903 458.883 230.183 459.807C231.494 460.73 233.192 461.191 235.276 461.191ZM283.35 464.765C280.223 464.765 277.393 464.08 274.862 462.71C272.36 461.311 270.395 459.404 268.965 456.992C267.535 454.55 266.821 451.81 266.821 448.772C266.821 445.734 267.535 443.009 268.965 440.597C270.395 438.155 272.375 436.248 274.907 434.878C277.438 433.479 280.267 432.779 283.395 432.779C285.837 432.779 288.071 433.196 290.096 434.03C292.121 434.834 293.848 436.04 295.278 437.648L292.374 440.463C290.021 437.991 287.088 436.755 283.573 436.755C281.25 436.755 279.151 437.276 277.274 438.318C275.398 439.361 273.924 440.805 272.852 442.652C271.809 444.468 271.288 446.509 271.288 448.772C271.288 451.036 271.809 453.091 272.852 454.937C273.924 456.754 275.398 458.183 277.274 459.226C279.151 460.268 281.25 460.789 283.573 460.789C287.058 460.789 289.992 459.539 292.374 457.037L295.278 459.851C293.848 461.459 292.106 462.681 290.051 463.514C288.026 464.348 285.792 464.765 283.35 464.765ZM320.834 456.59H304.215L300.775 464.408H296.174L310.335 433.136H314.758L328.965 464.408H324.274L320.834 456.59ZM319.27 453.016L312.525 437.693L305.779 453.016H319.27ZM354.537 464.408L347.791 454.803C346.957 454.863 346.302 454.892 345.825 454.892H338.097V464.408H333.629V433.136H345.825C349.876 433.136 353.063 434.104 355.386 436.04C357.709 437.976 358.87 440.641 358.87 444.037C358.87 446.449 358.275 448.504 357.083 450.202C355.892 451.899 354.194 453.135 351.99 453.91L359.406 464.408H354.537ZM345.691 451.095C348.521 451.095 350.68 450.485 352.169 449.263C353.658 448.042 354.403 446.3 354.403 444.037C354.403 441.773 353.658 440.046 352.169 438.854C350.68 437.633 348.521 437.023 345.691 437.023H338.097V451.095H345.691ZM378.085 433.136H382.553V460.521H399.484V464.408H378.085V433.136ZM406.365 464.676C405.531 464.676 404.816 464.393 404.221 463.827C403.625 463.232 403.327 462.487 403.327 461.594C403.327 460.73 403.625 460.015 404.221 459.449C404.816 458.854 405.531 458.556 406.365 458.556C407.199 458.556 407.899 458.839 408.465 459.404C409.03 459.97 409.313 460.7 409.313 461.594C409.313 462.487 409.016 463.232 408.42 463.827C407.854 464.393 407.169 464.676 406.365 464.676ZM416.084 433.136H420.552V460.521H437.483V464.408H416.084V433.136ZM444.364 464.676C443.53 464.676 442.815 464.393 442.22 463.827C441.624 463.232 441.326 462.487 441.326 461.594C441.326 460.73 441.624 460.015 442.22 459.449C442.815 458.854 443.53 458.556 444.364 458.556C445.198 458.556 445.898 458.839 446.464 459.404C447.029 459.97 447.312 460.7 447.312 461.594C447.312 462.487 447.015 463.232 446.419 463.827C445.853 464.393 445.168 464.676 444.364 464.676ZM467.194 464.765C464.066 464.765 461.237 464.08 458.706 462.71C456.204 461.311 454.238 459.404 452.809 456.992C451.379 454.55 450.664 451.81 450.664 448.772C450.664 445.734 451.379 443.009 452.809 440.597C454.238 438.155 456.219 436.248 458.75 434.878C461.282 433.479 464.111 432.779 467.238 432.779C469.681 432.779 471.914 433.196 473.939 434.03C475.965 434.834 477.692 436.04 479.122 437.648L476.218 440.463C473.865 437.991 470.931 436.755 467.417 436.755C465.094 436.755 462.994 437.276 461.118 438.318C459.242 439.361 457.767 440.805 456.695 442.652C455.653 444.468 455.132 446.509 455.132 448.772C455.132 451.036 455.653 453.091 456.695 454.937C457.767 456.754 459.242 458.183 461.118 459.226C462.994 460.268 465.094 460.789 467.417 460.789C470.902 460.789 473.835 459.539 476.218 457.037L479.122 459.851C477.692 461.459 475.95 462.681 473.895 463.514C471.87 464.348 469.636 464.765 467.194 464.765Z" fill="white"/>
</svg>
