<svg xmlns="http://www.w3.org/2000/svg" version="1.1" viewBox="0 0 62.37 18.28" height="18.280001" width="62.369999" id="Layer_1">
  
    
  
  <defs id="defs1">
    <style id="style1">.cls-1{fill:#cb2a2b;}.cls-2{fill:#fab163;}</style>
  </defs>
  <path id="path1" d="M 10.82,5.53 C 10.43,4.94 9.87,4.48 9.14,4.16 8.41,3.84 7.58,3.67 6.64,3.67 H 2.17 C 2.09,3.67 2.02,3.69 1.98,3.74 1.93,3.79 1.91,3.85 1.91,3.93 v 8.63 c 0.09,0.13 0.23,0.3 0.4,0.49 0.7,0.75 1.43,1.11 1.68,1.22 0.54,0.25 0.97,0.34 1.43,0.42 0.44,0.08 1.07,0.16 1.82,0.14 0.55,-0.02 0.97,-0.1 1.26,-0.17 0.34,-0.09 0.5,-0.13 0.98,-0.24 0.48,-0.12 0.87,-0.2 1.12,-0.24 0.08,-0.06 0.15,-0.12 0.21,-0.18 0.35,-0.36 0.1,-0.84 0.16,-1.25 0.05,-0.34 -0.02,-1.11 -0.04,-1.29 L 11.4,7.6 c 0,-0.78 -0.2,-1.46 -0.59,-2.05 z m -2.68,5.85 c -0.01,0.5 -0.15,0.9 -0.4,1.21 -0.26,0.31 -0.58,0.46 -0.97,0.46 h -1.5 c -0.06,0 -0.09,-0.03 -0.09,-0.09 V 6.56 C 5.18,6.5 5.21,6.47 5.27,6.47 h 1.48 c 0.42,0 0.75,0.15 1.01,0.46 0.26,0.31 0.38,0.71 0.38,1.21 z"></path>
  <path id="path2" d="m 11.16,11.69 h 0.31 V 8.27 h 0.48 l -0.1,-2.19 v 0 c 0,0 -1.15,-2.22 -1.15,-2.22 C 10.64,3.73 10.54,3.67 10.39,3.67 H 7.38 C 7.31,3.67 7.26,3.68 7.21,3.71 7.17,3.74 7.15,3.78 7.15,3.82 c 0,0.04 0.02,0.1 0.05,0.16 l 3.17,5.72 c 0,0 0.02,0.07 0,0.1 -0.93,1.66 -1.85,3.33 -2.78,4.99 0.15,-0.01 0.3,-0.02 0.45,-0.03 0.37,-0.06 0.74,-0.11 1.12,-0.17 0.67,-0.11 1.34,-0.22 1.99,-0.34 v -2.56 z" class="cls-1"></path>
  <path id="path3" d="M 17.7,3.98 C 17.73,3.92 17.75,3.87 17.75,3.82 17.75,3.77 17.73,3.74 17.69,3.71 17.65,3.68 17.59,3.67 17.52,3.67 h -2.99 c -0.14,0 -0.24,0.06 -0.31,0.19 l -1.09,2.11 -0.15,3.52 h 0.59 v 4.49 c 0,0 0,0.01 0.01,0.02 0.24,-0.03 0.55,-0.05 0.91,-0.03 0.34,0.02 0.59,0.06 1.01,0.14 0.37,0.07 0.6,0.11 0.91,0.21 0.3,0.1 0.54,0.2 0.7,0.28 -0.85,-1.59 -1.71,-3.19 -2.56,-4.78 -0.01,-0.03 -0.01,-0.07 0,-0.1 L 17.7,4 Z" class="cls-1"></path>
  <path id="path4" d="m 12.21,14.15 v -2.14 h -0.74 v 2.24 c 0.25,-0.02 0.49,-0.05 0.74,-0.09 z" class="cls-2"></path>
  <path id="path5" d="M 13.31,14.01 13.24,9.78 h -0.5 v 4.28 c 0.19,-0.03 0.38,-0.04 0.56,-0.05 z" class="cls-2"></path>
  <polygon id="polygon5" points="12.28,11.45 12.28,8.47 11.75,8.47 11.75,11.4" class="cls-2"></polygon>
  <path id="path6" d="M 12.74,8.92 12.88,5.96 H 12.67 L 12.56,1.82 h -0.18 l -0.07,3.01 -0.3,0.12 0.19,2.93 c 0,0 0.39,-0.06 0.53,1.05 z" class="cls-2"></path>
  <path id="path7" d="M 10.96,14.98 C 10.38,15.09 9.91,15.19 9.27,15.29 7.51,15.56 5.9,15.8 4.23,15.18 3.13,14.77 2.35,14.11 1.89,13.65 c 0.02,0.44 -0.02,0.89 0,1.33 0.21,0.16 0.49,0.36 0.84,0.56 0.2,0.12 0.88,0.5 1.78,0.77 1.64,0.49 3.08,0.33 3.72,0.26 0.71,-0.08 2.01,-0.31 2.14,-0.33 0.31,-0.06 0.55,-0.1 0.75,-0.14 -0.08,-0.36 -0.13,-0.74 -0.16,-1.11 z"></path>
  <path id="path8" d="m 12.32,14.75 c 0,0 0,0 0,0.02 l 0.03,0.22 c 0,0 0,0.01 0,0.02 0,0 0,0 -0.02,0 l -0.28,0.04 c 0,0 0,0 0,0 l 0.13,0.86 c 0,0 0,0.01 0,0.02 0,0 0,0 -0.02,0 l -0.26,0.04 c 0,0 -0.01,0 -0.02,0 0,0 0,0 0,-0.02 l -0.13,-0.86 c 0,0 0,0 0,0 l -0.27,0.04 c 0,0 -0.01,0 -0.02,0 0,0 0,0 0,-0.02 l -0.03,-0.22 c 0,0 0,-0.01 0,-0.02 0,0 0,0 0.02,0 l 0.88,-0.14 c 0,0 0.01,0 0.02,0 z"></path>
  <path id="path9" d="m 13.24,15.79 -0.23,-0.4 c 0,0 0,0 -0.01,0 h -0.07 c 0,0 0,0.01 0,0.02 l 0.04,0.42 c 0,0 0,0.01 0,0.02 0,0 0,0 -0.02,0 l -0.26,0.03 c 0,0 -0.01,0 -0.02,0 0,0 0,0 0,-0.02 l -0.12,-1.12 c 0,0 0,-0.01 0,-0.02 0,0 0,0 0.02,0 l 0.51,-0.05 c 0.08,0 0.14,0 0.2,0.03 0.06,0.03 0.11,0.06 0.15,0.12 0.04,0.05 0.06,0.12 0.07,0.19 0.01,0.07 0,0.14 -0.03,0.2 -0.03,0.06 -0.08,0.1 -0.14,0.14 0,0 0,0 0,0.01 l 0.26,0.42 c 0,0 0,0.01 0,0.01 0,0 0,0.01 0,0.01 0,0 0,0 -0.02,0 l -0.28,0.03 c 0,0 -0.02,0 -0.03,-0.02 z m -0.37,-0.84 0.02,0.2 c 0,0 0,0 0,0 l 0.16,-0.02 c 0,0 0.06,-0.02 0.08,-0.04 0.02,-0.02 0.03,-0.05 0.03,-0.08 0,-0.03 -0.02,-0.06 -0.04,-0.07 -0.02,-0.02 -0.05,-0.02 -0.09,-0.02 l -0.16,0.02 c 0,0 0,0 0,0 z"></path>
  <path id="path10" d="m 14.6,14.91 c 0,0 -0.01,0 -0.02,0 l -0.5,-0.03 c 0,0 0,0 0,0 v 0.16 c 0,0 0,0 0,0 l 0.31,0.02 c 0,0 0.01,0 0.02,0 0,0 0,0.01 0,0.02 v 0.22 c 0,0 -0.02,0.01 -0.02,0.02 0,0 -0.01,0 -0.02,0 L 14.06,15.3 c 0,0 0,0 0,0 v 0.17 c 0,0 0,0 0,0 l 0.5,0.03 c 0,0 0.01,0 0.02,0 0,0 0,0.01 0,0.02 v 0.22 c 0,0 -0.02,0.01 -0.02,0.02 0,0 -0.01,0 -0.02,0 l -0.8,-0.05 c 0,0 -0.01,0 -0.02,0 0,0 0,-0.01 0,-0.02 l 0.08,-1.12 c 0,0 0,-0.01 0,-0.02 0,0 0.01,0 0.02,0 l 0.8,0.05 c 0,0 0.01,0 0.02,0 0,0 0,0.01 0,0.02 v 0.22 c 0,0 -0.02,0.01 -0.02,0.02 z"></path>
  <path id="path11" d="m 15.72,14.9 0.25,0.07 c 0,0 0.01,0 0.02,0.01 0,0 0,0.01 0,0.02 l -0.28,1.09 c 0,0 0,0.01 -0.01,0.02 0,0 -0.01,0 -0.02,0 l -0.26,-0.07 c 0,0 -0.01,0 -0.02,-0.01 -0.01,-0.01 0,-0.01 0,-0.02 l 0.15,-0.59 c 0,0 0,0 0,0 0,0 0,0 0,0 l -0.16,0.15 c 0,0 -0.02,0.01 -0.03,0 l -0.12,-0.03 c 0,0 -0.02,-0.01 -0.03,-0.02 l -0.06,-0.21 c 0,0 0,0 0,0 0,0 0,0 0,0 L 15,15.9 c 0,0 0,0.01 -0.01,0.02 0,0 -0.01,0 -0.02,0 l -0.26,-0.07 c 0,0 -0.01,0 -0.02,-0.01 0,0 0,-0.01 0,-0.02 l 0.28,-1.09 c 0,0 0,-0.01 0.01,-0.02 0,0 0.01,0 0.02,0 l 0.25,0.07 c 0,0 0.02,0.01 0.03,0.02 l 0.12,0.38 c 0,0 0,0 0,0 l 0.29,-0.28 c 0,0 0.02,-0.01 0.03,0 z"></path>
  <path id="path12" d="m 16.99,15.68 c 0,0 -0.01,0 -0.02,0 l -0.46,-0.2 c 0,0 0,0 -0.01,0 l -0.06,0.14 c 0,0 0,0 0,0.01 l 0.28,0.13 c 0,0 0.01,0 0.01,0.01 0,0 0,0.01 0,0.02 l -0.09,0.2 c 0,0 0,0.01 -0.01,0.01 0,0 -0.01,0 -0.02,0 l -0.28,-0.13 c 0,0 0,0 -0.01,0 l -0.07,0.16 c 0,0 0,0 0,0.01 l 0.46,0.2 c 0,0 0.01,0 0.01,0.01 0,0 0,0.01 0,0.02 l -0.09,0.2 c 0,0 0,0.01 -0.01,0.01 0,0 -0.01,0 -0.02,0 l -0.73,-0.33 c 0,0 -0.01,0 -0.01,-0.01 0,0 0,-0.01 0,-0.02 l 0.46,-1.03 c 0,0 0,-0.01 0.01,-0.01 0,0 0.01,0 0.02,0 l 0.73,0.33 c 0,0 0.01,0 0.01,0.01 0,0 0,0.01 0,0.02 L 17,15.64 c 0,0 0,0.01 -0.01,0.01 z"></path>
  <path id="path13" d="m 21.46,12.78 c 0,0 -0.04,-0.06 -0.04,-0.1 V 6.59 c 0,0 0.01,-0.08 0.04,-0.1 0.02,-0.02 0.06,-0.04 0.1,-0.04 h 2.33 c 0.49,0 0.92,0.08 1.3,0.25 0.38,0.17 0.67,0.41 0.88,0.72 0.21,0.31 0.31,0.67 0.31,1.07 v 2.27 c 0,0.41 -0.1,0.76 -0.31,1.07 -0.21,0.31 -0.5,0.55 -0.88,0.72 -0.38,0.17 -0.81,0.25 -1.3,0.25 h -2.33 c 0,0 -0.08,-0.01 -0.1,-0.04 z m 1.72,-1.42 h 0.78 c 0.21,0 0.38,-0.08 0.51,-0.24 0.13,-0.16 0.2,-0.37 0.21,-0.63 V 8.8 C 24.68,8.54 24.61,8.33 24.48,8.17 24.35,8.01 24.17,7.93 23.95,7.93 h -0.77 c 0,0 -0.05,0.02 -0.05,0.05 v 3.34 c 0,0 0.01,0.05 0.05,0.05 z" class="cls-1"></path>
  <path id="path14" d="m 27.34,10.62 c 0,0 -0.04,-0.06 -0.04,-0.1 V 9.34 c 0,0 0.01,-0.08 0.04,-0.1 0.03,-0.02 0.06,-0.04 0.1,-0.04 h 3.13 c 0,0 0.08,0.01 0.1,0.04 0.02,0.02 0.04,0.06 0.04,0.1 v 1.18 c 0,0 -0.01,0.08 -0.04,0.1 -0.02,0.02 -0.06,0.04 -0.1,0.04 h -3.13 c 0,0 -0.08,-0.01 -0.1,-0.04 z" class="cls-1"></path>
  <path id="path15" d="m 30.75,12.8 c 0,0 -0.03,-0.03 -0.03,-0.06 0,-0.03 0,-0.06 0.03,-0.08 L 32.4,9.67 c 0,0 0.01,-0.04 0,-0.05 L 30.75,6.63 c 0,0 -0.03,-0.06 -0.03,-0.08 0,-0.02 0.01,-0.04 0.03,-0.06 0.02,-0.02 0.05,-0.02 0.09,-0.02 h 1.57 c 0.08,0 0.13,0.03 0.16,0.1 l 0.89,1.72 c 0,0 0.04,0.02 0.05,0 L 34.4,6.57 c 0.04,-0.07 0.09,-0.1 0.16,-0.1 h 1.56 c 0,0 0.07,0 0.09,0.02 0.02,0.02 0.03,0.03 0.03,0.06 0,0.03 0,0.05 -0.03,0.08 l -1.64,2.99 c 0,0 0,0.04 0,0.05 l 1.64,2.99 c 0,0 0.03,0.05 0.03,0.08 0,0.02 -0.01,0.04 -0.03,0.06 -0.02,0.02 -0.05,0.02 -0.09,0.02 h -1.55 c -0.07,0 -0.13,-0.03 -0.16,-0.1 l -0.9,-1.71 c 0,0 -0.04,-0.03 -0.05,0 l -0.9,1.71 c -0.03,0.07 -0.08,0.1 -0.16,0.1 h -1.56 c 0,0 -0.07,0 -0.09,-0.02 z" class="cls-1"></path>
  <path id="path16" d="m 39.83,9.42 c 0,0 -0.06,0.04 -0.1,0.04 h -0.75 c 0,0 -0.05,0.02 -0.05,0.05 v 1.43 c 0,0.3 0.11,0.45 0.33,0.45 h 0.34 c 0,0 0.08,0.01 0.1,0.04 0.02,0.02 0.04,0.06 0.04,0.1 v 1.16 c 0,0.08 -0.05,0.13 -0.14,0.15 -0.24,0.02 -0.46,0.03 -0.68,0.03 -0.55,0 -0.96,-0.08 -1.22,-0.25 -0.26,-0.17 -0.39,-0.49 -0.4,-0.96 V 9.53 c 0,0 -0.02,-0.05 -0.05,-0.05 h -0.49 c 0,0 -0.08,-0.01 -0.1,-0.04 C 36.64,9.42 36.62,9.38 36.62,9.34 V 8.25 c 0,0 0.01,-0.08 0.04,-0.1 0.03,-0.02 0.06,-0.04 0.1,-0.04 h 0.49 c 0,0 0.05,-0.01 0.05,-0.05 V 6.97 c 0,0 0.01,-0.08 0.04,-0.1 0.02,-0.02 0.06,-0.04 0.1,-0.04 h 1.36 c 0,0 0.08,0.01 0.1,0.04 0.02,0.02 0.04,0.06 0.04,0.1 v 1.09 c 0,0 0.02,0.05 0.05,0.05 h 0.75 c 0,0 0.08,0.01 0.1,0.04 0.02,0.02 0.04,0.06 0.04,0.1 v 1.09 c 0,0 -0.01,0.08 -0.04,0.1 z"></path>
  <path id="path17" d="m 43.47,8.15 c 0.05,0.03 0.08,0.09 0.06,0.17 l -0.22,1.4 c 0,0 -0.02,0.08 -0.05,0.09 -0.03,0.01 -0.07,0.01 -0.11,0 -0.11,-0.02 -0.21,-0.04 -0.29,-0.04 -0.09,0 -0.18,0 -0.25,0.03 -0.16,0.03 -0.29,0.1 -0.4,0.2 -0.11,0.1 -0.17,0.23 -0.17,0.4 v 2.28 c 0,0 -0.01,0.08 -0.04,0.1 -0.02,0.02 -0.06,0.04 -0.1,0.04 h -1.44 c 0,0 -0.08,-0.01 -0.1,-0.04 -0.02,-0.02 -0.04,-0.06 -0.04,-0.1 V 8.23 c 0,0 0.01,-0.08 0.04,-0.1 0.02,-0.02 0.06,-0.04 0.1,-0.04 h 1.44 c 0,0 0.08,0.01 0.1,0.04 0.02,0.02 0.04,0.06 0.04,0.1 v 0.22 c 0,0 0,0.03 0.02,0.04 0.01,0 0.02,0 0.03,0 0.23,-0.3 0.53,-0.45 0.9,-0.45 0.21,0 0.37,0.04 0.49,0.12 z"></path>
  <path id="path18" d="m 48.32,10.53 c 0,0.1 0,0.17 0,0.23 0,0.08 -0.05,0.13 -0.14,0.13 h -2.73 c 0,0 -0.04,0.01 -0.04,0.04 0,0.05 0.02,0.12 0.07,0.19 0.06,0.1 0.17,0.19 0.32,0.26 0.15,0.07 0.33,0.1 0.52,0.1 0.16,0 0.31,-0.02 0.45,-0.07 0.14,-0.05 0.26,-0.12 0.35,-0.21 0.03,-0.02 0.06,-0.04 0.09,-0.04 0.04,0 0.08,0.02 0.1,0.05 L 48,12.09 c 0,0 0.04,0.06 0.04,0.1 0,0.04 -0.02,0.07 -0.05,0.09 -0.21,0.21 -0.48,0.36 -0.79,0.46 -0.31,0.1 -0.65,0.15 -1.02,0.15 -0.56,0 -1.04,-0.12 -1.44,-0.35 -0.4,-0.24 -0.69,-0.57 -0.87,-1.01 -0.13,-0.31 -0.2,-0.65 -0.2,-1.02 0,-0.38 0.05,-0.72 0.16,-1.02 0.16,-0.46 0.43,-0.82 0.81,-1.08 0.38,-0.26 0.82,-0.39 1.33,-0.39 0.39,0 0.75,0.09 1.08,0.27 0.33,0.18 0.6,0.43 0.82,0.75 0.21,0.32 0.35,0.68 0.41,1.08 0.02,0.13 0.03,0.27 0.03,0.41 z m -2.86,-0.68 -0.04,0.1 c 0,0 0,0.03 0,0.04 0.01,0 0.02,0.01 0.04,0.01 h 1.04 c 0,0 0.04,-0.01 0.04,-0.04 0,-0.03 0,-0.06 -0.03,-0.12 -0.03,-0.11 -0.09,-0.2 -0.19,-0.27 -0.09,-0.06 -0.21,-0.1 -0.35,-0.1 -0.25,0 -0.42,0.12 -0.52,0.36 z"></path>
  <path id="path19" d="m 55.48,8.47 c 0.27,0.3 0.4,0.71 0.4,1.25 v 2.96 c 0,0 -0.01,0.08 -0.04,0.1 -0.03,0.02 -0.06,0.04 -0.1,0.04 H 54.3 c 0,0 -0.08,-0.01 -0.1,-0.04 -0.02,-0.02 -0.04,-0.06 -0.04,-0.1 v -2.59 c 0,-0.18 -0.04,-0.33 -0.13,-0.44 -0.09,-0.11 -0.2,-0.17 -0.34,-0.17 -0.14,0 -0.26,0.06 -0.35,0.17 -0.09,0.11 -0.14,0.26 -0.14,0.44 v 2.59 c 0,0 -0.01,0.08 -0.04,0.1 -0.02,0.02 -0.06,0.04 -0.1,0.04 h -1.44 c 0,0 -0.08,-0.01 -0.1,-0.04 -0.02,-0.02 -0.04,-0.06 -0.04,-0.1 v -2.59 c 0,-0.18 -0.05,-0.33 -0.14,-0.44 -0.09,-0.11 -0.22,-0.17 -0.37,-0.17 -0.13,0 -0.24,0.04 -0.33,0.12 -0.09,0.08 -0.14,0.19 -0.17,0.33 0,0.01 0,0.03 0,0.05 v 2.69 c 0,0 -0.01,0.08 -0.04,0.1 -0.02,0.02 -0.06,0.04 -0.1,0.04 h -1.44 c 0,0 -0.08,-0.01 -0.1,-0.04 -0.02,-0.02 -0.04,-0.06 -0.04,-0.1 V 8.22 c 0,0 0.01,-0.08 0.04,-0.1 0.02,-0.02 0.06,-0.04 0.1,-0.04 h 1.44 c 0,0 0.08,0.01 0.1,0.04 0.02,0.02 0.04,0.06 0.04,0.1 v 0.45 c 0,0 0,0.04 0.02,0.04 0.02,0 0.02,0 0.04,-0.03 0.23,-0.45 0.62,-0.67 1.16,-0.67 0.31,0 0.58,0.07 0.81,0.21 0.23,0.14 0.41,0.35 0.53,0.61 0.02,0.03 0.04,0.03 0.05,0 0.12,-0.27 0.29,-0.48 0.5,-0.61 0.21,-0.14 0.47,-0.2 0.76,-0.2 0.48,0 0.85,0.15 1.12,0.45 z"></path>
  <path id="path20" d="m 61.01,10.53 c 0,0.1 0,0.17 0,0.23 0,0.08 -0.05,0.13 -0.14,0.13 h -2.73 c 0,0 -0.04,0.01 -0.04,0.04 0,0.05 0.02,0.12 0.07,0.19 0.06,0.1 0.17,0.19 0.32,0.26 0.15,0.07 0.33,0.1 0.52,0.1 0.16,0 0.31,-0.02 0.45,-0.07 0.14,-0.05 0.26,-0.12 0.35,-0.21 0.03,-0.02 0.06,-0.04 0.09,-0.04 0.04,0 0.08,0.02 0.1,0.05 l 0.69,0.88 c 0,0 0.04,0.06 0.04,0.1 0,0.04 -0.02,0.07 -0.05,0.09 -0.21,0.21 -0.48,0.36 -0.79,0.46 -0.31,0.1 -0.65,0.15 -1.02,0.15 -0.56,0 -1.04,-0.12 -1.44,-0.35 -0.4,-0.24 -0.69,-0.57 -0.87,-1.01 -0.13,-0.31 -0.2,-0.65 -0.2,-1.02 0,-0.38 0.05,-0.72 0.16,-1.02 0.16,-0.46 0.43,-0.82 0.81,-1.08 0.38,-0.26 0.82,-0.39 1.33,-0.39 0.39,0 0.75,0.09 1.08,0.27 0.33,0.18 0.6,0.43 0.82,0.75 0.21,0.32 0.35,0.68 0.41,1.08 0.02,0.13 0.03,0.27 0.03,0.41 z m -2.86,-0.68 -0.04,0.1 c 0,0 0,0.03 0,0.04 0.01,0 0.02,0.01 0.04,0.01 h 1.04 c 0,0 0.04,-0.01 0.04,-0.04 0,-0.03 0,-0.06 -0.03,-0.12 -0.03,-0.11 -0.09,-0.2 -0.19,-0.27 -0.09,-0.06 -0.21,-0.1 -0.35,-0.1 -0.25,0 -0.42,0.12 -0.52,0.36 z"></path>
</svg>
